<svg width="950" height="850" viewBox="0 0 950 850" fill="none" xmlns="http://www.w3.org/2000/svg">
<path d="M878.232 814.124L873.851 815.845C872.857 816.235 871.959 816.413 871.155 816.379C870.345 816.347 869.645 816.105 869.054 815.651C868.46 815.206 867.993 814.554 867.655 813.693C867.417 813.087 867.324 812.484 867.375 811.883C867.422 811.291 867.607 810.729 867.929 810.197C868.248 809.673 868.692 809.201 869.262 808.781L869.678 808.398L873.796 806.781L874.374 808.2L871.266 809.421C870.635 809.669 870.154 809.984 869.822 810.366C869.491 810.755 869.294 811.178 869.23 811.637C869.165 812.096 869.222 812.553 869.401 813.008C869.6 813.517 869.875 813.923 870.225 814.226C870.575 814.529 871.006 814.699 871.517 814.736C872.024 814.782 872.614 814.673 873.287 814.408L875.914 813.377L871.28 801.578L873.034 800.889L878.232 814.124ZM865.299 803.927L870.873 808.663L869.05 809.389L863.47 804.772L863.427 804.663L865.299 803.927Z" fill="#ABAEB7"/>
<path d="M856.885 805.359C857.61 805.237 858.289 805.249 858.921 805.394C859.547 805.546 860.11 805.812 860.609 806.19C861.102 806.569 861.512 807.049 861.84 807.627C862.168 808.206 862.394 808.861 862.516 809.593L862.584 809.998C862.726 810.845 862.728 811.621 862.588 812.324C862.45 813.034 862.204 813.656 861.852 814.19C861.499 814.725 861.07 815.157 860.564 815.486C860.058 815.815 859.513 816.028 858.929 816.126C858.184 816.251 857.52 816.231 856.938 816.064C856.349 815.899 855.842 815.614 855.418 815.21C854.995 814.812 854.648 814.316 854.376 813.721C854.106 813.133 853.909 812.473 853.787 811.741L853.652 810.941L861.434 809.636L861.678 811.09L855.678 812.097L855.701 812.232C855.804 812.69 855.976 813.123 856.216 813.532C856.45 813.941 856.767 814.258 857.167 814.481C857.568 814.704 858.073 814.765 858.683 814.662C859.088 814.595 859.445 814.445 859.757 814.215C860.069 813.991 860.319 813.692 860.507 813.317C860.695 812.942 860.816 812.502 860.87 811.998C860.924 811.494 860.898 810.927 860.793 810.298L860.725 809.894C860.642 809.399 860.497 808.945 860.289 808.531C860.075 808.125 859.809 807.78 859.491 807.496C859.167 807.214 858.799 807.012 858.389 806.889C857.973 806.768 857.521 806.748 857.033 806.83C856.403 806.935 855.892 807.153 855.498 807.483C855.105 807.813 854.78 808.221 854.525 808.706L853.303 808.029C853.47 807.651 853.702 807.279 853.997 806.913C854.292 806.547 854.677 806.225 855.152 805.947C855.62 805.67 856.198 805.474 856.885 805.359Z" fill="#ABAEB7"/>
<path d="M843.802 807.771L843.641 813.208C843.628 813.624 843.702 813.988 843.863 814.299C844.016 814.616 844.256 814.864 844.583 815.043C844.91 815.222 845.317 815.319 845.805 815.334C846.261 815.347 846.663 815.281 847.013 815.135C847.356 814.989 847.629 814.792 847.832 814.544C848.028 814.296 848.13 814.025 848.139 813.732L849.945 813.786C849.934 814.163 849.825 814.534 849.619 814.9C849.413 815.265 849.123 815.592 848.749 815.88C848.369 816.175 847.92 816.403 847.401 816.563C846.874 816.73 846.293 816.804 845.655 816.785C844.887 816.762 844.214 816.612 843.636 816.334C843.052 816.056 842.601 815.649 842.285 815.112C841.962 814.581 841.812 813.922 841.836 813.135L841.981 808.215C841.992 807.864 841.974 807.489 841.927 807.09C841.874 806.691 841.789 806.347 841.674 806.057L841.679 805.901L843.563 805.956C843.648 806.167 843.711 806.446 843.753 806.792C843.795 807.145 843.811 807.472 843.802 807.771ZM843.353 812.359L843.371 811.09L845.197 811.144C845.711 811.159 846.171 811.13 846.577 811.058C846.983 810.992 847.325 810.881 847.603 810.727C847.881 810.572 848.095 810.373 848.246 810.13C848.396 809.894 848.476 809.613 848.486 809.287C848.496 808.955 848.43 808.651 848.288 808.373C848.147 808.095 847.928 807.87 847.634 807.699C847.333 807.534 846.961 807.444 846.518 807.431C845.965 807.415 845.474 807.518 845.044 807.739C844.614 807.961 844.27 808.237 844.013 808.569C843.749 808.899 843.603 809.224 843.574 809.542L842.828 808.651C842.882 808.379 843.015 808.08 843.226 807.754C843.438 807.428 843.717 807.117 844.065 806.821C844.405 806.532 844.81 806.293 845.278 806.105C845.739 805.923 846.256 805.841 846.829 805.858C847.545 805.879 848.168 806.038 848.7 806.333C849.226 806.629 849.631 807.016 849.916 807.493C850.195 807.977 850.326 808.511 850.309 809.097C850.292 809.663 850.166 810.158 849.932 810.581C849.698 811.01 849.369 811.362 848.944 811.636C848.518 811.916 848.011 812.123 847.421 812.255C846.831 812.387 846.174 812.443 845.452 812.421L843.353 812.359Z" fill="#ABAEB7"/>
<path d="M831.957 805.772L828.985 818.375L827.217 817.958L830.659 803.359L832.275 803.74L831.957 805.772ZM838.161 810.435L838.114 810.635C837.929 811.421 837.666 812.111 837.325 812.706C836.976 813.306 836.569 813.796 836.106 814.175C835.635 814.552 835.124 814.806 834.571 814.937C834.011 815.072 833.423 815.067 832.809 814.922C832.163 814.77 831.625 814.523 831.198 814.181C830.762 813.844 830.427 813.421 830.193 812.911C829.951 812.406 829.803 811.829 829.748 811.181C829.694 810.532 829.718 809.819 829.821 809.041L830.027 808.166C830.275 807.429 830.571 806.783 830.916 806.228C831.254 805.673 831.644 805.223 832.087 804.879C832.523 804.534 833.012 804.305 833.553 804.192C834.094 804.085 834.69 804.108 835.343 804.262C835.945 804.404 836.465 804.664 836.905 805.042C837.338 805.418 837.679 805.884 837.93 806.438C838.174 806.99 838.32 807.607 838.367 808.287C838.406 808.971 838.338 809.688 838.161 810.435ZM836.346 810.218L836.393 810.018C836.514 809.505 836.577 809.012 836.582 808.538C836.58 808.063 836.509 807.628 836.368 807.233C836.227 806.839 836.008 806.503 835.712 806.226C835.415 805.955 835.029 805.764 834.554 805.651C833.971 805.514 833.463 805.525 833.031 805.684C832.592 805.841 832.211 806.096 831.888 806.448C831.564 806.799 831.282 807.198 831.044 807.643L830.504 809.934C830.497 810.3 830.529 810.662 830.599 811.02C830.66 811.382 830.775 811.717 830.944 812.024C831.104 812.336 831.331 812.607 831.625 812.837C831.912 813.065 832.278 813.232 832.721 813.337C833.203 813.45 833.642 813.447 834.038 813.326C834.427 813.21 834.773 813.004 835.077 812.708C835.379 812.418 835.638 812.058 835.853 811.627C836.061 811.201 836.225 810.731 836.346 810.218Z" fill="#ABAEB7"/>
<path d="M812.433 810.495L810.924 809.466L813.61 797.265L803.237 804.221L801.72 803.186L814.509 794.699L815.687 795.503L812.433 810.495ZM812.925 810.831L811.594 809.923L816.264 802.611L819.39 798.029L820.939 799.086L812.925 810.831ZM802.567 803.764L801.236 802.856L809.25 791.111L810.799 792.167L807.673 796.749L802.567 803.764Z" fill="#ABAEB7"/>
<path d="M804.663 793.071L804.495 793.22C803.926 793.726 803.325 794.113 802.691 794.381C802.053 794.653 801.415 794.793 800.778 794.802C800.137 794.816 799.519 794.69 798.926 794.425C798.328 794.164 797.784 793.759 797.295 793.209C796.802 792.655 796.46 792.065 796.27 791.441C796.072 790.816 796.016 790.186 796.104 789.55C796.182 788.914 796.394 788.294 796.738 787.692C797.077 787.093 797.531 786.541 798.1 786.035L798.268 785.885C798.837 785.379 799.438 784.992 800.071 784.725C800.705 784.457 801.345 784.319 801.991 784.311C802.628 784.301 803.245 784.427 803.843 784.688C804.432 784.948 804.973 785.356 805.467 785.91C805.96 786.464 806.304 787.052 806.499 787.672C806.688 788.296 806.744 788.926 806.665 789.563C806.578 790.199 806.364 790.816 806.025 791.414C805.686 792.012 805.232 792.564 804.663 793.071ZM803.294 791.871L803.462 791.721C803.856 791.371 804.187 790.993 804.454 790.589C804.717 790.19 804.901 789.778 805.004 789.355C805.102 788.928 805.104 788.504 805.008 788.083C804.908 787.667 804.691 787.271 804.358 786.897C804.029 786.527 803.666 786.271 803.268 786.128C802.862 785.984 802.442 785.939 802.01 785.992C801.578 786.046 801.149 786.18 800.721 786.395C800.284 786.609 799.869 786.892 799.475 787.242L799.307 787.392C798.918 787.738 798.595 788.113 798.336 788.518C798.068 788.922 797.885 789.338 797.786 789.765C797.678 790.193 797.672 790.617 797.767 791.037C797.858 791.453 798.071 791.848 798.404 792.222C798.733 792.592 799.101 792.849 799.507 792.992C799.91 793.131 800.331 793.174 800.773 793.121C801.204 793.068 801.637 792.932 802.069 792.712C802.497 792.497 802.905 792.217 803.294 791.871Z" fill="#ABAEB7"/>
<path d="M792.133 782.923L799.727 778.269L800.671 779.809L791.662 785.33L790.743 783.832L792.133 782.923ZM788.943 781.006L790.38 780.137C790.431 780.282 790.489 780.414 790.555 780.534C790.612 780.652 790.685 780.783 790.773 780.927C790.991 781.282 791.239 781.562 791.516 781.766C791.794 781.97 792.091 782.105 792.406 782.171C792.722 782.238 793.052 782.241 793.398 782.182C793.734 782.121 794.077 782.007 794.425 781.839L794.94 782.119C794.396 782.452 793.853 782.713 793.311 782.9C792.765 783.081 792.24 783.171 791.734 783.167C791.222 783.168 790.757 783.056 790.337 782.832C789.908 782.606 789.544 782.249 789.245 781.76C789.177 781.649 789.113 781.513 789.052 781.352C788.986 781.194 788.95 781.079 788.943 781.006Z" fill="#ABAEB7"/>
<path d="M795.202 768.413C795.474 769.097 795.605 769.762 795.597 770.41C795.58 771.055 795.439 771.661 795.174 772.228C794.907 772.79 794.525 773.292 794.029 773.735C793.532 774.178 792.939 774.536 792.249 774.81L791.868 774.962C791.07 775.279 790.312 775.444 789.595 775.456C788.872 775.47 788.212 775.361 787.615 775.129C787.019 774.897 786.506 774.568 786.078 774.143C785.65 773.718 785.326 773.23 785.107 772.679C784.828 771.978 784.708 771.325 784.748 770.72C784.786 770.11 784.957 769.555 785.263 769.055C785.563 768.557 785.975 768.113 786.499 767.723C787.017 767.334 787.621 767.003 788.311 766.729L789.064 766.429L791.98 773.762L790.609 774.306L788.361 768.653L788.234 768.704C787.808 768.901 787.421 769.16 787.072 769.481C786.721 769.796 786.478 770.172 786.344 770.611C786.21 771.05 786.258 771.556 786.486 772.131C786.638 772.512 786.859 772.831 787.15 773.086C787.435 773.344 787.78 773.526 788.186 773.631C788.592 773.735 789.047 773.761 789.551 773.708C790.056 773.654 790.604 773.51 791.197 773.274L791.578 773.122C792.044 772.937 792.457 772.699 792.818 772.409C793.171 772.114 793.452 771.782 793.662 771.411C793.869 771.034 793.99 770.633 794.023 770.206C794.054 769.773 793.978 769.327 793.796 768.867C793.56 768.274 793.239 767.82 792.834 767.505C792.428 767.19 791.961 766.959 791.433 766.811L791.837 765.474C792.242 765.558 792.654 765.706 793.074 765.917C793.495 766.128 793.891 766.437 794.262 766.843C794.631 767.242 794.945 767.766 795.202 768.413Z" fill="#ABAEB7"/>
<path d="M790.887 754.887C790.582 754.915 790.317 754.844 790.093 754.675C789.861 754.5 789.729 754.231 789.695 753.868C789.662 753.505 789.744 753.22 789.941 753.012C790.131 752.799 790.378 752.678 790.683 752.65C790.981 752.623 791.243 752.697 791.468 752.873C791.693 753.042 791.821 753.308 791.854 753.671C791.888 754.034 791.809 754.323 791.619 754.536C791.429 754.743 791.185 754.86 790.887 754.887Z" fill="#ABAEB7"/>
<path d="M778.163 737.117L779.14 732.513C779.361 731.468 779.707 730.62 780.178 729.968C780.651 729.309 781.239 728.858 781.943 728.615C782.642 728.364 783.443 728.334 784.348 728.526C784.984 728.661 785.539 728.915 786.013 729.288C786.481 729.654 786.848 730.118 787.115 730.68C787.377 731.235 787.526 731.865 787.562 732.572L787.654 733.13L786.736 737.458L785.232 737.159L785.925 733.892C786.065 733.229 786.068 732.654 785.931 732.166C785.789 731.677 785.544 731.279 785.196 730.972C784.849 730.665 784.436 730.461 783.959 730.36C783.424 730.247 782.933 730.253 782.487 730.378C782.042 730.503 781.662 730.768 781.35 731.175C781.033 731.573 780.799 732.126 780.649 732.833L780.063 735.594L792.463 738.224L792.072 740.067L778.163 737.117ZM793.797 731.938L786.774 733.982L787.172 732.06L794.099 729.945L794.214 729.97L793.797 731.938Z" fill="#ABAEB7"/>
<path d="M797.236 724.125C796.938 724.797 796.554 725.357 796.086 725.805C795.613 726.244 795.082 726.567 794.491 726.776C793.903 726.978 793.277 727.057 792.614 727.012C791.95 726.967 791.279 726.794 790.6 726.494L790.225 726.327C789.439 725.979 788.791 725.553 788.281 725.05C787.765 724.543 787.381 723.996 787.129 723.407C786.877 722.818 786.753 722.222 786.757 721.619C786.761 721.015 786.883 720.443 787.123 719.901C787.429 719.21 787.812 718.668 788.271 718.273C788.733 717.873 789.25 717.607 789.821 717.475C790.386 717.341 790.992 717.325 791.638 717.426C792.278 717.524 792.937 717.724 793.615 718.024L794.356 718.352L791.16 725.567L789.812 724.969L792.276 719.407L792.151 719.352C791.712 719.185 791.256 719.09 790.783 719.066C790.312 719.035 789.873 719.126 789.466 719.337C789.059 719.548 788.731 719.937 788.48 720.502C788.314 720.877 788.241 721.258 788.262 721.645C788.277 722.029 788.389 722.402 788.599 722.766C788.808 723.129 789.108 723.472 789.499 723.795C789.89 724.118 790.378 724.408 790.961 724.667L791.336 724.833C791.794 725.036 792.253 725.165 792.714 725.219C793.17 725.265 793.605 725.233 794.016 725.123C794.431 725.008 794.802 724.813 795.13 724.538C795.461 724.257 795.727 723.891 795.927 723.438C796.186 722.855 796.285 722.308 796.227 721.798C796.168 721.288 796.006 720.792 795.742 720.312L796.98 719.664C797.203 720.012 797.386 720.41 797.529 720.858C797.673 721.306 797.729 721.805 797.7 722.354C797.673 722.898 797.518 723.488 797.236 724.125Z" fill="#ABAEB7"/>
<path d="M802.427 711.877L797.977 708.748C797.636 708.508 797.292 708.37 796.945 708.332C796.595 708.286 796.256 708.349 795.927 708.524C795.597 708.698 795.292 708.985 795.011 709.384C794.749 709.757 794.582 710.129 794.512 710.502C794.445 710.868 794.459 711.205 794.554 711.51C794.654 711.811 794.823 712.045 795.063 712.214L794.023 713.692C793.714 713.475 793.464 713.179 793.273 712.806C793.082 712.433 792.969 712.011 792.934 711.541C792.897 711.061 792.954 710.56 793.106 710.039C793.257 709.508 793.516 708.981 793.883 708.459C794.324 707.831 794.82 707.352 795.371 707.022C795.924 706.688 796.512 706.536 797.135 706.568C797.756 706.59 798.388 706.828 799.032 707.282L803.059 710.113C803.346 710.315 803.669 710.506 804.028 710.687C804.39 710.862 804.724 710.981 805.029 711.045L805.157 711.135L804.073 712.677C803.85 712.631 803.583 712.531 803.271 712.375C802.953 712.215 802.672 712.049 802.427 711.877ZM798.844 708.976L799.894 709.69L798.843 711.184C798.547 711.604 798.318 712.004 798.155 712.383C797.987 712.758 797.891 713.104 797.866 713.422C797.842 713.739 797.89 714.027 798.01 714.287C798.125 714.543 798.315 714.764 798.582 714.951C798.853 715.142 799.144 715.255 799.454 715.29C799.764 715.325 800.071 715.266 800.377 715.115C800.68 714.955 800.96 714.693 801.214 714.331C801.533 713.879 801.718 713.412 801.769 712.931C801.821 712.45 801.78 712.011 801.645 711.614C801.514 711.211 801.324 710.91 801.074 710.711L802.229 710.58C802.426 710.774 802.603 711.05 802.758 711.406C802.914 711.762 803.019 712.166 803.075 712.619C803.129 713.063 803.105 713.532 803.005 714.026C802.902 714.511 802.686 714.988 802.357 715.457C801.945 716.043 801.469 716.476 800.929 716.757C800.393 717.033 799.847 717.158 799.291 717.134C798.734 717.1 798.216 716.915 797.737 716.578C797.273 716.252 796.929 715.875 796.705 715.446C796.476 715.014 796.364 714.546 796.369 714.04C796.369 713.531 796.476 712.993 796.691 712.428C796.906 711.862 797.221 711.284 797.636 710.693L798.844 708.976Z" fill="#ABAEB7"/>
<path d="M810.62 703.091L801.736 693.669L803.058 692.423L813.348 703.337L812.14 704.476L810.62 703.091ZM803.31 705.702L803.169 705.552C802.615 704.965 802.184 704.365 801.875 703.753C801.566 703.131 801.381 702.522 801.321 701.926C801.265 701.326 801.334 700.759 801.53 700.226C801.725 699.684 802.053 699.196 802.512 698.763C802.995 698.307 803.497 697.995 804.018 697.826C804.539 697.648 805.077 697.602 805.632 697.687C806.187 697.763 806.75 697.957 807.321 698.269C807.892 698.58 808.474 698.993 809.067 699.508L809.683 700.162C810.163 700.775 810.539 701.378 810.811 701.971C811.089 702.559 811.249 703.133 811.293 703.691C811.341 704.245 811.263 704.78 811.059 705.294C810.851 705.804 810.503 706.288 810.015 706.748C809.565 707.173 809.061 707.464 808.504 707.623C807.951 707.777 807.374 707.806 806.774 707.71C806.178 707.61 805.584 707.392 804.99 707.057C804.397 706.712 803.837 706.26 803.31 705.702ZM804.491 704.306L804.631 704.455C804.993 704.839 805.37 705.163 805.763 705.428C806.161 705.689 806.563 705.869 806.97 705.968C807.377 706.068 807.778 706.07 808.172 705.976C808.562 705.877 808.934 705.66 809.29 705.325C809.725 704.914 809.996 704.484 810.101 704.036C810.211 703.583 810.209 703.125 810.093 702.661C809.978 702.197 809.8 701.743 809.56 701.298L807.946 699.586C807.643 699.379 807.323 699.206 806.987 699.067C806.65 698.919 806.307 698.831 805.958 698.802C805.609 698.764 805.258 698.804 804.905 698.923C804.556 699.037 804.216 699.25 803.884 699.563C803.524 699.903 803.285 700.271 803.168 700.668C803.05 701.056 803.032 701.459 803.111 701.875C803.187 702.287 803.345 702.702 803.586 703.119C803.827 703.527 804.129 703.923 804.491 704.306Z" fill="#ABAEB7"/>
<path d="M817.429 684.193L819.119 683.501L827.824 692.462L827.731 679.973L829.43 679.277L829.471 694.626L828.151 695.167L817.429 684.193ZM816.878 684.419L818.369 683.808L821.901 691.733L824.004 696.866L822.268 697.577L816.878 684.419ZM828.481 679.666L829.972 679.055L835.363 692.212L833.628 692.923L831.525 687.79L828.481 679.666Z" fill="#ABAEB7"/>
<path d="M836.252 687.304L836.22 687.081C836.111 686.327 836.119 685.612 836.245 684.936C836.369 684.254 836.603 683.644 836.946 683.108C837.289 682.565 837.734 682.119 838.282 681.769C838.829 681.414 839.466 681.183 840.194 681.077C840.929 680.971 841.609 681.01 842.235 681.196C842.866 681.374 843.422 681.675 843.905 682.098C844.393 682.514 844.793 683.032 845.107 683.651C845.419 684.263 845.63 684.947 845.74 685.7L845.772 685.923C845.881 686.677 845.873 687.392 845.748 688.068C845.622 688.744 845.385 689.354 845.036 689.898C844.693 690.434 844.248 690.88 843.701 691.236C843.159 691.584 842.521 691.812 841.787 691.918C841.052 692.025 840.373 691.988 839.748 691.809C839.122 691.624 838.566 691.323 838.078 690.907C837.595 690.484 837.198 689.966 836.885 689.353C836.573 688.741 836.362 688.057 836.252 687.304ZM838.008 686.822L838.04 687.044C838.116 687.566 838.249 688.05 838.438 688.496C838.627 688.936 838.87 689.315 839.166 689.634C839.469 689.952 839.822 690.187 840.225 690.339C840.628 690.484 841.077 690.521 841.574 690.449C842.063 690.378 842.477 690.216 842.815 689.963C843.159 689.703 843.428 689.378 843.621 688.988C843.815 688.598 843.939 688.165 843.996 687.69C844.057 687.208 844.05 686.705 843.974 686.183L843.942 685.961C843.867 685.446 843.732 684.969 843.537 684.53C843.347 684.084 843.101 683.702 842.799 683.384C842.501 683.059 842.151 682.82 841.747 682.668C841.35 682.515 840.904 682.475 840.408 682.546C839.918 682.618 839.501 682.783 839.157 683.044C838.82 683.303 838.552 683.631 838.353 684.029C838.159 684.419 838.035 684.854 837.98 685.336C837.924 685.811 837.933 686.306 838.008 686.822Z" fill="#ABAEB7"/>
<path d="M851.623 682.434L851.326 691.336L849.52 691.275L849.873 680.715L851.63 680.773L851.623 682.434ZM854.979 680.827L854.914 682.505C854.765 682.468 854.623 682.443 854.486 682.432C854.356 682.415 854.207 682.403 854.038 682.398C853.621 682.384 853.252 682.437 852.928 682.556C852.605 682.676 852.329 682.849 852.1 683.076C851.871 683.302 851.686 683.576 851.545 683.897C851.411 684.212 851.318 684.561 851.266 684.943L850.748 685.219C850.77 684.581 850.851 683.985 850.994 683.429C851.143 682.874 851.358 682.386 851.639 681.966C851.92 681.539 852.27 681.212 852.688 680.985C853.112 680.751 853.611 680.644 854.184 680.663C854.314 680.668 854.463 680.689 854.631 680.727C854.799 680.759 854.915 680.792 854.979 680.827Z" fill="#ABAEB7"/>
<path d="M862.044 692.987C861.324 692.837 860.696 692.58 860.16 692.216C859.631 691.847 859.203 691.396 858.875 690.862C858.553 690.33 858.344 689.735 858.248 689.077C858.152 688.418 858.18 687.726 858.331 686.999L858.414 686.598C858.589 685.756 858.869 685.033 859.254 684.428C859.64 683.817 860.094 683.326 860.617 682.956C861.139 682.585 861.696 682.339 862.286 682.215C862.877 682.092 863.463 682.09 864.043 682.211C864.782 682.365 865.393 682.624 865.876 682.991C866.364 683.358 866.733 683.807 866.982 684.337C867.232 684.862 867.376 685.45 867.414 686.103C867.452 686.749 867.396 687.436 867.245 688.162L867.08 688.956L859.355 687.351L859.654 685.908L865.611 687.145L865.639 687.011C865.709 686.547 865.706 686.081 865.63 685.613C865.561 685.146 865.38 684.736 865.088 684.383C864.795 684.03 864.346 683.79 863.741 683.664C863.339 683.581 862.952 683.59 862.578 683.692C862.206 683.788 861.864 683.976 861.553 684.257C861.242 684.538 860.97 684.904 860.737 685.354C860.504 685.805 860.322 686.342 860.192 686.967L860.109 687.368C860.007 687.859 859.978 688.335 860.022 688.797C860.073 689.253 860.196 689.671 860.39 690.05C860.59 690.431 860.859 690.753 861.197 691.015C861.541 691.28 861.955 691.462 862.44 691.563C863.064 691.693 863.62 691.675 864.106 691.51C864.593 691.345 865.043 691.083 865.457 690.723L866.351 691.797C866.058 692.088 865.707 692.351 865.299 692.586C864.891 692.82 864.416 692.981 863.873 693.067C863.336 693.155 862.726 693.128 862.044 692.987Z" fill="#ABAEB7"/>
<path d="M875.711 696.834C875.855 696.564 876.06 696.382 876.325 696.288C876.598 696.191 876.896 696.228 877.217 696.401C877.538 696.573 877.732 696.799 877.796 697.077C877.87 697.353 877.834 697.626 877.69 697.895C877.548 698.159 877.342 698.337 877.072 698.428C876.807 698.523 876.514 698.483 876.192 698.311C875.871 698.139 875.674 697.915 875.6 697.639C875.532 697.366 875.569 697.098 875.711 696.834Z" fill="#ABAEB7"/>
<path d="M897.55 696L900.856 699.351C901.605 700.111 902.123 700.868 902.408 701.62C902.697 702.377 902.75 703.116 902.565 703.838C902.39 704.559 901.973 705.245 901.315 705.894C900.852 706.351 900.334 706.674 899.762 706.864C899.199 707.053 898.609 707.105 897.993 707.018C897.386 706.931 896.777 706.708 896.167 706.349L895.651 706.118L892.544 702.968L893.622 701.878L895.968 704.255C896.443 704.737 896.922 705.056 897.404 705.211C897.891 705.362 898.358 705.377 898.806 705.255C899.253 705.134 899.651 704.902 899.998 704.559C900.388 704.175 900.653 703.763 900.794 703.322C900.935 702.881 900.922 702.418 900.755 701.933C900.597 701.449 900.265 700.949 899.757 700.435L897.775 698.426L888.751 707.327L887.428 705.986L897.55 696ZM893.264 711.902L895.425 704.915L896.81 706.305L894.76 713.252L894.676 713.334L893.264 711.902Z" fill="#ABAEB7"/>
<path d="M897.89 719.074C897.493 718.455 897.237 717.827 897.122 717.189C897.015 716.553 897.038 715.931 897.189 715.324C897.344 714.721 897.623 714.156 898.026 713.626C898.429 713.097 898.943 712.632 899.568 712.231L899.913 712.01C900.636 711.545 901.349 711.239 902.05 711.091C902.757 710.939 903.426 710.92 904.056 711.034C904.686 711.148 905.252 711.372 905.753 711.708C906.255 712.044 906.666 712.461 906.986 712.96C907.393 713.595 907.635 714.213 907.712 714.814C907.791 715.421 907.729 715.998 907.524 716.547C907.325 717.093 907.005 717.607 906.565 718.091C906.131 718.571 905.601 719.011 904.976 719.412L904.294 719.85L900.033 713.209L901.274 712.413L904.56 717.533L904.675 717.459C905.055 717.184 905.386 716.856 905.667 716.474C905.952 716.098 906.118 715.682 906.166 715.226C906.213 714.77 906.07 714.282 905.736 713.761C905.515 713.416 905.237 713.146 904.903 712.95C904.574 712.751 904.2 712.639 903.781 712.614C903.363 712.588 902.911 712.65 902.427 712.799C901.942 712.947 901.431 713.194 900.894 713.538L900.549 713.76C900.127 714.031 899.766 714.343 899.468 714.697C899.178 715.053 898.965 715.433 898.83 715.837C898.698 716.247 898.657 716.664 898.705 717.089C898.757 717.52 898.917 717.944 899.184 718.36C899.529 718.897 899.93 719.282 900.388 719.513C900.847 719.745 901.349 719.883 901.895 719.927L901.755 721.317C901.341 721.312 900.908 721.245 900.455 721.118C900.002 720.991 899.555 720.764 899.113 720.437C898.674 720.115 898.267 719.661 897.89 719.074Z" fill="#ABAEB7"/>
<path d="M905.255 730.153L910.317 728.162C910.705 728.009 911.01 727.798 911.233 727.529C911.465 727.263 911.598 726.945 911.634 726.574C911.67 726.203 911.599 725.79 911.42 725.336C911.253 724.912 911.034 724.568 910.762 724.304C910.493 724.046 910.205 723.872 909.897 723.784C909.591 723.701 909.302 723.713 909.03 723.82L908.369 722.139C908.72 722.001 909.104 721.955 909.521 722.001C909.938 722.047 910.352 722.184 910.764 722.414C911.185 722.647 911.571 722.971 911.923 723.386C912.283 723.803 912.58 724.309 912.814 724.903C913.095 725.618 913.221 726.296 913.193 726.936C913.168 727.583 912.971 728.157 912.601 728.659C912.241 729.165 911.694 729.562 910.96 729.85L906.38 731.652C906.053 731.78 905.715 731.945 905.367 732.144C905.021 732.35 904.738 732.563 904.517 732.783L904.371 732.841L903.681 731.087C903.842 730.925 904.073 730.758 904.375 730.583C904.683 730.406 904.977 730.262 905.255 730.153ZM909.65 728.76L908.476 729.243L907.808 727.543C907.619 727.065 907.412 726.653 907.185 726.308C906.965 725.961 906.729 725.69 906.478 725.496C906.226 725.301 905.959 725.182 905.676 725.139C905.4 725.094 905.11 725.131 904.807 725.25C904.498 725.372 904.244 725.552 904.044 725.791C903.844 726.031 903.724 726.32 903.682 726.658C903.648 727 903.713 727.377 903.875 727.789C904.077 728.304 904.365 728.715 904.738 729.023C905.111 729.332 905.5 729.539 905.906 729.645C906.314 729.757 906.67 729.764 906.974 729.666L906.447 730.702C906.176 730.759 905.849 730.755 905.466 730.689C905.083 730.623 904.688 730.488 904.279 730.285C903.879 730.085 903.5 729.808 903.143 729.451C902.795 729.099 902.515 728.656 902.306 728.123C902.044 727.456 901.944 726.82 902.007 726.215C902.072 725.616 902.268 725.091 902.594 724.641C902.929 724.194 903.37 723.863 903.915 723.649C904.442 723.442 904.946 723.362 905.427 723.411C905.914 723.458 906.367 723.622 906.786 723.905C907.211 724.186 907.601 724.571 907.954 725.062C908.308 725.552 908.617 726.134 908.882 726.806L909.65 728.76Z" fill="#ABAEB7"/>
<path d="M908.076 741.83L920.833 739.604L921.145 741.393L906.368 743.972L906.083 742.336L908.076 741.83ZM909.923 734.291L910.125 734.256C910.921 734.117 911.659 734.087 912.34 734.167C913.029 734.251 913.639 734.432 914.17 734.71C914.702 734.994 915.136 735.364 915.474 735.821C915.819 736.282 916.046 736.824 916.154 737.447C916.268 738.101 916.252 738.692 916.107 739.219C915.968 739.752 915.711 740.227 915.334 740.643C914.965 741.064 914.493 741.427 913.918 741.733C913.344 742.038 912.678 742.296 911.922 742.507L911.037 742.662C910.261 742.724 909.551 742.706 908.906 742.607C908.262 742.515 907.695 742.333 907.205 742.061C906.716 741.796 906.313 741.437 905.996 740.984C905.685 740.529 905.472 739.971 905.357 739.311C905.251 738.701 905.285 738.121 905.459 737.568C905.635 737.022 905.928 736.525 906.339 736.076C906.751 735.634 907.26 735.258 907.867 734.947C908.481 734.642 909.166 734.423 909.923 734.291ZM910.438 736.045L910.235 736.08C909.716 736.171 909.238 736.307 908.8 736.489C908.364 736.678 907.992 736.915 907.685 737.199C907.378 737.484 907.155 737.817 907.017 738.198C906.885 738.578 906.861 739.009 906.944 739.49C907.047 740.08 907.257 740.542 907.573 740.877C907.89 741.218 908.274 741.468 908.725 741.628C909.176 741.787 909.653 741.889 910.156 741.933L912.475 741.528C912.814 741.39 913.134 741.218 913.436 741.014C913.745 740.814 914.007 740.577 914.224 740.301C914.447 740.031 914.607 739.716 914.703 739.355C914.8 739.001 914.809 738.6 914.731 738.151C914.646 737.663 914.47 737.261 914.203 736.944C913.944 736.633 913.618 736.395 913.226 736.233C912.841 736.069 912.407 735.972 911.927 735.944C911.453 735.921 910.957 735.954 910.438 736.045Z" fill="#ABAEB7"/>
<path d="M920.1 757.922L919.747 759.713L907.474 762.044L917.949 768.845L917.595 770.646L904.761 762.227L905.036 760.828L920.1 757.922ZM920.215 757.337L919.904 758.918L911.345 757.501L905.902 756.43L906.264 754.59L920.215 757.337ZM917.793 769.64L917.482 771.221L903.531 768.474L903.893 766.634L909.335 767.706L917.793 769.64Z" fill="#ABAEB7"/>
<path d="M907.137 771.92L907.34 772.015C908.029 772.339 908.622 772.74 909.117 773.217C909.618 773.697 909.998 774.228 910.257 774.81C910.522 775.394 910.649 776.012 910.638 776.661C910.634 777.314 910.475 777.973 910.163 778.639C909.847 779.311 909.44 779.857 908.94 780.276C908.444 780.705 907.886 781.004 907.267 781.174C906.651 781.352 905.998 781.401 905.309 781.322C904.626 781.246 903.939 781.045 903.25 780.721L903.047 780.626C902.357 780.302 901.765 779.902 901.27 779.424C900.775 778.947 900.396 778.413 900.134 777.823C899.875 777.241 899.748 776.623 899.752 775.971C899.76 775.327 899.922 774.669 900.237 773.998C900.553 773.326 900.957 772.779 901.451 772.356C901.95 771.936 902.508 771.637 903.124 771.459C903.743 771.289 904.394 771.243 905.078 771.319C905.761 771.396 906.447 771.596 907.137 771.92ZM906.572 773.65L906.369 773.555C905.891 773.331 905.414 773.175 904.937 773.088C904.466 773.003 904.016 772.996 903.587 773.068C903.155 773.146 902.764 773.311 902.415 773.564C902.072 773.82 901.794 774.175 901.581 774.629C901.37 775.077 901.277 775.511 901.302 775.933C901.33 776.363 901.454 776.767 901.673 777.143C901.892 777.519 902.184 777.861 902.55 778.17C902.919 778.487 903.342 778.758 903.819 778.982L904.022 779.077C904.494 779.299 904.966 779.449 905.44 779.528C905.917 779.615 906.371 779.62 906.803 779.542C907.239 779.473 907.631 779.312 907.98 779.059C908.326 778.812 908.606 778.461 908.819 778.008C909.029 777.56 909.121 777.121 909.093 776.69C909.062 776.266 908.935 775.861 908.713 775.477C908.495 775.1 908.199 774.757 907.828 774.445C907.462 774.137 907.043 773.872 906.572 773.65Z" fill="#ABAEB7"/>
<path d="M902.737 787.431L895.471 782.281L896.516 780.807L905.136 786.917L904.12 788.351L902.737 787.431ZM902.23 791.118L900.866 790.139C900.979 790.035 901.078 789.93 901.162 789.822C901.248 789.723 901.34 789.605 901.438 789.467C901.679 789.127 901.838 788.789 901.917 788.453C901.995 788.118 902.002 787.792 901.939 787.476C901.876 787.16 901.749 786.854 901.559 786.56C901.37 786.275 901.131 786.005 900.84 785.751L900.894 785.167C901.415 785.536 901.868 785.933 902.253 786.358C902.635 786.788 902.923 787.236 903.12 787.702C903.321 788.172 903.401 788.644 903.361 789.118C903.322 789.601 903.136 790.076 902.805 790.544C902.73 790.65 902.63 790.763 902.505 790.882C902.386 791.005 902.295 791.084 902.23 791.118Z" fill="#ABAEB7"/>
<path d="M888.19 790.318C888.711 789.799 889.272 789.416 889.871 789.169C890.47 788.931 891.082 788.822 891.708 788.842C892.33 788.867 892.942 789.02 893.544 789.303C894.146 789.585 894.709 789.989 895.233 790.515L895.522 790.806C896.128 791.415 896.577 792.047 896.87 792.702C897.168 793.361 897.327 794.01 897.349 794.65C897.37 795.29 897.27 795.891 897.047 796.452C896.825 797.013 896.503 797.502 896.083 797.92C895.548 798.453 894.995 798.82 894.423 799.021C893.847 799.226 893.269 799.287 892.69 799.203C892.114 799.123 891.544 798.919 890.979 798.59C890.418 798.267 889.876 797.842 889.352 797.316L888.781 796.741L894.375 791.176L895.415 792.221L891.101 796.512L891.198 796.609C891.547 796.923 891.938 797.177 892.37 797.372C892.797 797.571 893.239 797.646 893.695 797.596C894.151 797.547 894.598 797.304 895.037 796.868C895.327 796.578 895.533 796.25 895.654 795.882C895.779 795.519 895.81 795.13 895.746 794.715C895.683 794.301 895.528 793.872 895.28 793.43C895.033 792.987 894.684 792.539 894.234 792.087L893.945 791.796C893.591 791.441 893.21 791.155 892.801 790.937C892.392 790.729 891.975 790.601 891.552 790.554C891.124 790.512 890.707 790.559 890.302 790.696C889.892 790.838 889.511 791.083 889.16 791.432C888.708 791.882 888.417 792.355 888.287 792.852C888.156 793.349 888.127 793.869 888.2 794.412L886.811 794.568C886.73 794.162 886.703 793.725 886.732 793.255C886.761 792.786 886.889 792.301 887.115 791.799C887.338 791.303 887.696 790.809 888.19 790.318Z" fill="#ABAEB7"/>
<path d="M877.452 799.606C877.597 799.875 877.636 800.146 877.569 800.42C877.5 800.701 877.304 800.929 876.984 801.102C876.663 801.275 876.368 801.312 876.1 801.213C875.829 801.123 875.621 800.943 875.476 800.673C875.333 800.41 875.299 800.14 875.371 799.864C875.439 799.591 875.633 799.368 875.953 799.195C876.274 799.021 876.57 798.98 876.841 799.07C877.106 799.164 877.31 799.343 877.452 799.606Z" fill="#ABAEB7"/>
<path d="M-0.684249 31.8023C81.893 29.5964 128.806 69.412 140.055 151.249C151.303 233.086 198.216 272.902 280.793 270.696C363.37 268.49 410.283 308.306 421.532 390.143C432.781 471.98 479.694 511.796 562.271 509.59C644.848 507.384 691.761 547.2 703.01 629.037C714.258 710.874 761.171 750.69 843.748 748.484" stroke="#33363F" stroke-width="2"/>
<path d="M848.74 730C846.152 744.055 844.055 746.152 830 748.74C844.055 751.328 846.152 753.425 848.74 767.48C851.325 753.425 853.425 751.328 867.484 748.74C853.425 746.152 851.325 744.055 848.74 730Z" fill="white"/>
</svg>
